<svg id="グループ_102" data-name="グループ 102" xmlns="http://www.w3.org/2000/svg" xmlns:xlink="http://www.w3.org/1999/xlink" width="163.954" height="184.668" viewBox="0 0 163.954 184.668">
  <defs>
    <linearGradient id="linear-gradient" x1="0.335" y1="0.5" x2="0.674" y2="0.5" gradientUnits="objectBoundingBox">
      <stop offset="0.004"/>
      <stop offset="1" stop-color="#2e2a29"/>
    </linearGradient>
  </defs>
  <g id="グループ_101" data-name="グループ 101" transform="translate(0 145.933)">
    <path id="パス_21" data-name="パス 21" d="M322.608,609.887a19.367,19.367,0,1,1,19.367-19.367A19.389,19.389,0,0,1,322.608,609.887Zm0-30.84a11.473,11.473,0,1,0,11.473,11.473A11.485,11.485,0,0,0,322.608,579.047Z" transform="translate(-216.482 -571.153)" fill="#dc000c"/>
    <path id="パス_22" data-name="パス 22" d="M254.706,610.9H244.557a1.453,1.453,0,0,1-1.423-1.481V575.521a1.453,1.453,0,0,1,1.423-1.481h10.148a1.453,1.453,0,0,1,1.424,1.481v33.895A1.453,1.453,0,0,1,254.706,610.9Z" transform="translate(-186.428 -572.597)" fill="#1a1311"/>
    <rect id="長方形_172" data-name="長方形 172" width="27.424" height="2.848" rx="1.424" transform="translate(56.706 35.452)" fill="#1a1311"/>
    <path id="パス_23" data-name="パス 23" d="M420.955,595.5H404.948a1.424,1.424,0,0,1-1.424-1.424h0a1.424,1.424,0,0,1,1.424-1.424h14.138a8.551,8.551,0,0,0,8.61-7.594,8.372,8.372,0,0,0-8.328-9.131h-14.42a1.424,1.424,0,0,1-1.424-1.424h0a1.424,1.424,0,0,1,1.424-1.423h14.42c8.615,0,14.991,9.768,8.637,18.809A8.606,8.606,0,0,1,420.955,595.5Z" transform="translate(-266.625 -572.117)" fill="#1a1311"/>
    <path id="パス_24" data-name="パス 24" d="M406.372,610.417H396.4a1.416,1.416,0,0,1-1.423-1.408V574.488a1.416,1.416,0,0,1,1.423-1.407h9.968a1.416,1.416,0,0,1,1.424,1.407V609.01A1.416,1.416,0,0,1,406.372,610.417Z" transform="translate(-262.353 -572.117)" fill="#1a1311"/>
    <path id="パス_25" data-name="パス 25" d="M132.152,611.331h-1.006a1.424,1.424,0,0,1-1.007-2.431l34.442-34.443a1.425,1.425,0,0,1,1.007-.417h1.006a1.424,1.424,0,0,1,1.007,2.431l-34.443,34.443A1.423,1.423,0,0,1,132.152,611.331Z" transform="translate(-129.719 -572.597)" fill="#dc000c"/>
    <path id="パス_26" data-name="パス 26" d="M189.964,613.076H174.615l2.437-2.433a1.413,1.413,0,0,1,1-.414h11.911Z" transform="translate(-152.168 -590.691)" fill="#dc000c"/>
    <path id="パス_27" data-name="パス 27" d="M207.169,611.332H197.02a1.424,1.424,0,0,1-1.423-1.424V577.45a1.421,1.421,0,0,1,.385-.974l1.862-1.985a1.423,1.423,0,0,1,1.038-.449h8.286a1.424,1.424,0,0,1,1.424,1.423v34.443A1.424,1.424,0,0,1,207.169,611.332Z" transform="translate(-162.659 -572.598)" fill="#dc000c"/>
    <path id="パス_28" data-name="パス 28" d="M333.685,600.208v8.363a1.316,1.316,0,0,0,1.918,1.17l8.116-4.181a1.316,1.316,0,0,0,0-2.339l-8.116-4.181A1.316,1.316,0,0,0,333.685,600.208Z" transform="translate(-231.704 -585.022)" fill="#dc000c"/>
  </g>
  <path id="パス_29" data-name="パス 29" d="M265.322,417.362l24.367.012V319.281H248.48L130.547,417.494l32.524-.12,56.5-46.658Z" transform="translate(-130.133 -319.281)" fill="url(#linear-gradient)"/>
  <path id="パス_30" data-name="パス 30" d="M156.754,417.494l122.929-98.213h23.11L181.159,417.494Z" transform="translate(-143.237 -319.281)" fill="#a30a1a"/>
  <path id="パス_31" data-name="パス 31" d="M292.6,420.551l-48.915-.248a4.459,4.459,0,0,0-4.484,4.459h0A15.24,15.24,0,0,0,254.272,440l15.019.123,8.514,6.623a41.151,41.151,0,0,0,35.967,21.138h30.244V420.727Z" transform="translate(-184.459 -361.166)" fill="#262423"/>
  <path id="パス_32" data-name="パス 32" d="M347.274,382.263l-.263,19.366-23.738-.062Z" transform="translate(-226.498 -346.438)" fill="#555"/>
</svg>
