<svg xmlns="http://www.w3.org/2000/svg" width="163.176" height="35.617" viewBox="0 0 163.176 35.617">
  <g id="グループ_35" data-name="グループ 35" transform="translate(-57 -207)">
    <g id="グループ_26" data-name="グループ 26" transform="translate(57 207)">
      <g id="グループ_25" data-name="グループ 25">
        <path id="パス_2" data-name="パス 2" d="M207.9,251.466h-10.44A1.412,1.412,0,0,1,196,250.113V219.135a1.413,1.413,0,0,1,1.465-1.354H207.9a1.413,1.413,0,0,1,1.465,1.354v30.978A1.413,1.413,0,0,1,207.9,251.466Z" transform="translate(-139.723 -216.296)" fill="#14101a"/>
        <path id="パス_3" data-name="パス 3" d="M285.334,250.064c-10.986,0-19.924-7.989-19.924-17.808s8.938-17.808,19.924-17.808,19.924,7.989,19.924,17.808S296.321,250.064,285.334,250.064Zm0-28.358c-6.508,0-11.8,4.733-11.8,10.55s5.3,10.55,11.8,10.55,11.8-4.733,11.8-10.55S291.843,221.706,285.334,221.706Z" transform="translate(-179.963 -214.448)" fill="#dc000c"/>
        <rect id="長方形_80" data-name="長方形 80" width="28.214" height="2.93" rx="1.465" transform="translate(56.055 32.24)" fill="#14101a"/>
        <path id="パス_4" data-name="パス 4" d="M399.151,239.74H382.684a1.465,1.465,0,0,1-1.465-1.465h0a1.465,1.465,0,0,1,1.465-1.465h14.545A8.8,8.8,0,0,0,406.088,229a8.614,8.614,0,0,0-8.569-9.394H382.684a1.465,1.465,0,0,1-1.465-1.465h0a1.465,1.465,0,0,1,1.465-1.465h14.835c8.863,0,15.423,10.05,8.886,19.351A8.854,8.854,0,0,1,399.151,239.74Z" transform="translate(-245.877 -215.682)" fill="#14101a"/>
        <path id="パス_5" data-name="パス 5" d="M383.073,250.852H372.818a1.385,1.385,0,0,1-1.465-1.288v-31.6a1.385,1.385,0,0,1,1.465-1.288h10.255a1.385,1.385,0,0,1,1.465,1.288v31.6A1.385,1.385,0,0,1,383.073,250.852Z" transform="translate(-240.405 -215.682)" fill="#14101a"/>
        <path id="パス_6" data-name="パス 6" d="M67.525,251.913H66.49a1.291,1.291,0,0,1-1.036-2.225l35.434-31.525a1.563,1.563,0,0,1,1.036-.382h1.035A1.291,1.291,0,0,1,104,220.006L68.561,251.531A1.562,1.562,0,0,1,67.525,251.913Z" transform="translate(-65.022 -216.296)" fill="#dc000c"/>
        <path id="パス_7" data-name="パス 7" d="M132.659,262.5H116.868l2.508-2.5a1.457,1.457,0,0,1,1.029-.426h12.254Z" transform="translate(-93.775 -241.778)" fill="#dc000c"/>
        <path id="パス_8" data-name="パス 8" d="M153,251.915H142.564a1.391,1.391,0,0,1-1.465-1.3V220.9a1.229,1.229,0,0,1,.4-.892l1.916-1.817a1.555,1.555,0,0,1,1.068-.412H153a1.392,1.392,0,0,1,1.465,1.3v31.525A1.392,1.392,0,0,1,153,251.915Z" transform="translate(-108.412 -216.298)" fill="#dc000c"/>
        <path id="パス_9" data-name="パス 9" d="M300.567,247.835v8.6a1.354,1.354,0,0,0,1.973,1.2l8.35-4.3a1.354,1.354,0,0,0,0-2.407l-8.35-4.3A1.353,1.353,0,0,0,300.567,247.835Z" transform="translate(-199.31 -234.328)" fill="#dc000c"/>
      </g>
    </g>
  </g>
</svg>
