<svg xmlns="http://www.w3.org/2000/svg" width="26.473" height="25.051" viewBox="0 0 26.473 25.051">
  <g id="Icon_feather-shopping-cart" data-name="Icon feather-shopping-cart" transform="translate(1.5 1.5)">
    <path id="パス_10" data-name="パス 10" d="M14.134,31.067A1.067,1.067,0,1,1,13.067,30,1.067,1.067,0,0,1,14.134,31.067Z" transform="translate(-4.531 -10.083)" fill="none" stroke="#555" stroke-linecap="round" stroke-linejoin="round" stroke-width="3"/>
    <path id="パス_11" data-name="パス 11" d="M30.634,31.067A1.067,1.067,0,1,1,29.567,30,1.067,1.067,0,0,1,30.634,31.067Z" transform="translate(-9.294 -10.083)" fill="none" stroke="#555" stroke-linecap="round" stroke-linejoin="round" stroke-width="3"/>
    <path id="パス_12" data-name="パス 12" d="M1.5,1.5H5.768L8.627,15.469a2.124,2.124,0,0,0,2.134,1.68H21.132a2.124,2.124,0,0,0,2.134-1.68l1.707-8.753H6.835" transform="translate(-1.5 -1.5)" fill="none" stroke="#555" stroke-linecap="round" stroke-linejoin="round" stroke-width="3"/>
  </g>
</svg>
